<svg width="50" height="55" viewBox="0 0 123 116" fill="none" xmlns="http://www.w3.org/2000/svg">
<path d="M54.5076 105.22C54.5076 109.397 50.8571 113.044 46.0226 113.044C41.1881 113.044 37.5376 109.397 37.5376 105.22C37.5376 101.042 41.1881 97.3956 46.0226 97.3956C50.8571 97.3956 54.5076 101.042 54.5076 105.22Z" stroke="white" stroke-width="5"/>
<path d="M97.7868 105.22C97.7868 109.38 94.1175 113.044 89.2192 113.044C84.3209 113.044 80.6516 109.38 80.6516 105.22C80.6516 101.059 84.3209 97.3956 89.2192 97.3956C94.1175 97.3956 97.7868 101.059 97.7868 105.22Z" stroke="white" stroke-width="5"/>
<path d="M2 3.71194L6.9885 6.0503C15.6233 10.0979 22.241 17.4826 25.3211 26.5078V26.5078M42.9666 78.2116H60.4765M42.9666 78.2116L37.1881 61.2799M42.9666 78.2116V78.2116C38.7715 87.6504 45.6807 98.2819 56.0097 98.2819H103.921M25.3211 26.5078H60.4765M25.3211 26.5078L31.4096 44.3481M60.4765 26.5078V78.2116M60.4765 26.5078H88.5584M60.4765 78.2116H88.5584M31.4096 44.3481H116.417M31.4096 44.3481L37.1881 61.2799M116.417 44.3481V44.3481C119.61 35.6951 113.207 26.5078 103.984 26.5078H88.5584M116.417 44.3481L110.169 61.2799M88.5584 26.5078V78.2116M88.5584 78.2116V78.2116C97.7897 78.2116 106.043 72.4596 109.239 63.7991L110.169 61.2799M37.1881 61.2799H110.169" stroke="white" stroke-width="7"/>
</svg>
