<svg width="80" height="85" viewBox="0 0 125 160" fill="none" xmlns="http://www.w3.org/2000/svg">
<path d="M3.4 156.16C2.80667 156.16 2.31333 156.063 1.92 155.87C1.52667 155.67 1.21667 155.383 0.99 155.01C0.763333 154.637 0.6 154.187 0.5 153.66C0.406667 153.133 0.36 152.54 0.36 151.88L2.48 151.68C2.48 152 2.49 152.31 2.51 152.61C2.53667 152.903 2.58 153.17 2.64 153.41C2.70667 153.643 2.8 153.83 2.92 153.97C3.04667 154.11 3.20667 154.18 3.4 154.18C3.72 154.18 3.94667 154.033 4.08 153.74C4.21333 153.44 4.28 153.08 4.28 152.66C4.28 152.24 4.17 151.803 3.95 151.35C3.73 150.897 3.46667 150.467 3.16 150.06C2.64 149.367 2.18333 148.723 1.79 148.13C1.40333 147.537 1.1 146.953 0.88 146.38C0.666667 145.807 0.56 145.207 0.56 144.58C0.56 144.087 0.623333 143.633 0.75 143.22C0.876667 142.8 1.06 142.437 1.3 142.13C1.54667 141.817 1.84333 141.573 2.19 141.4C2.53667 141.227 2.93333 141.14 3.38 141.14C3.93333 141.14 4.4 141.233 4.78 141.42C5.16667 141.607 5.47667 141.873 5.71 142.22C5.95 142.567 6.12333 142.98 6.23 143.46C6.34333 143.933 6.4 144.46 6.4 145.04L4.28 145.24C4.28 144.993 4.26667 144.747 4.24 144.5C4.22 144.247 4.18 144.017 4.12 143.81C4.06 143.603 3.97333 143.437 3.86 143.31C3.74667 143.183 3.6 143.12 3.42 143.12C3.14 143.12 2.94667 143.24 2.84 143.48C2.73333 143.713 2.68 144.047 2.68 144.48C2.68 145.04 2.83 145.58 3.13 146.1C3.43 146.62 3.83333 147.227 4.34 147.92C4.94667 148.74 5.44 149.493 5.82 150.18C6.20667 150.867 6.4 151.627 6.4 152.46C6.4 152.987 6.34333 153.477 6.23 153.93C6.11667 154.377 5.93667 154.767 5.69 155.1C5.45 155.433 5.14 155.693 4.76 155.88C4.38667 156.067 3.93333 156.16 3.4 156.16ZM8.55781 156V145.06H10.5778V156H8.55781ZM8.55781 143.32V141.3H10.5778V143.32H8.55781ZM15.7705 159.92C15.2038 159.92 14.6738 159.857 14.1805 159.73C13.6871 159.603 13.2871 159.397 12.9805 159.11C12.6805 158.83 12.5305 158.46 12.5305 158C12.5305 157.647 12.6271 157.34 12.8205 157.08C13.0205 156.82 13.2471 156.607 13.5005 156.44C13.7538 156.28 13.9571 156.18 14.1105 156.14C13.7838 156.047 13.4971 155.887 13.2505 155.66C13.0105 155.433 12.8905 155.107 12.8905 154.68C12.8905 154.267 13.0238 153.93 13.2905 153.67C13.5571 153.41 13.8438 153.2 14.1505 153.04C13.7838 152.8 13.4971 152.487 13.2905 152.1C13.0905 151.707 12.9905 151.227 12.9905 150.66V147.68C12.9905 146.86 13.2171 146.193 13.6705 145.68C14.1305 145.16 14.7571 144.9 15.5505 144.9C16.0638 144.9 16.4805 145 16.8005 145.2C17.1271 145.393 17.3838 145.627 17.5705 145.9C17.7638 145.573 18.0238 145.327 18.3505 145.16C18.6771 144.987 18.9705 144.9 19.2305 144.9V146.7C18.9638 146.7 18.7305 146.723 18.5305 146.77C18.3305 146.81 18.1705 146.867 18.0505 146.94C18.0705 146.987 18.0905 147.083 18.1105 147.23C18.1371 147.377 18.1505 147.507 18.1505 147.62V150.72C18.1505 151.493 17.9138 152.137 17.4405 152.65C16.9671 153.163 16.3371 153.42 15.5505 153.42C15.3638 153.42 15.2371 153.413 15.1705 153.4C15.0838 153.48 15.0138 153.56 14.9605 153.64C14.9138 153.72 14.8905 153.807 14.8905 153.9C14.8905 154.113 15.0105 154.267 15.2505 154.36C15.4971 154.447 15.8238 154.52 16.2305 154.58C17.0905 154.707 17.7871 154.957 18.3205 155.33C18.8605 155.703 19.1305 156.3 19.1305 157.12C19.1305 157.76 18.9671 158.287 18.6405 158.7C18.3205 159.113 17.9038 159.42 17.3905 159.62C16.8771 159.82 16.3371 159.92 15.7705 159.92ZM15.8105 158.22C16.1438 158.22 16.4338 158.16 16.6805 158.04C16.9271 157.92 17.0505 157.733 17.0505 157.48C17.0505 157.227 16.9738 157.053 16.8205 156.96C16.6738 156.873 16.4238 156.787 16.0705 156.7L15.2305 156.5C15.0238 156.62 14.8471 156.757 14.7005 156.91C14.5605 157.063 14.4905 157.247 14.4905 157.46C14.4905 157.667 14.5938 157.843 14.8005 157.99C15.0071 158.143 15.3438 158.22 15.8105 158.22ZM15.5705 151.74C15.7838 151.74 15.9371 151.667 16.0305 151.52C16.1238 151.373 16.1705 151.153 16.1705 150.86V147.66C16.1705 147.393 16.1271 147.177 16.0405 147.01C15.9538 146.843 15.7971 146.76 15.5705 146.76C15.3438 146.76 15.1871 146.847 15.1005 147.02C15.0138 147.193 14.9705 147.407 14.9705 147.66V150.86C14.9705 151.153 15.0171 151.373 15.1105 151.52C15.2038 151.667 15.3571 151.74 15.5705 151.74ZM20.975 156V145.06H22.995V145.98C23.235 145.747 23.505 145.51 23.805 145.27C24.105 145.023 24.3817 144.9 24.635 144.9C24.9683 144.9 25.2483 145.007 25.475 145.22C25.7017 145.433 25.8717 145.703 25.985 146.03C26.0983 146.357 26.155 146.693 26.155 147.04V156H24.135V147.44C24.135 147.227 24.0983 147.077 24.025 146.99C23.9517 146.903 23.8283 146.86 23.655 146.86C23.5083 146.86 23.3817 146.913 23.275 147.02C23.175 147.12 23.0817 147.24 22.995 147.38V156H20.975ZM29.9169 156.16C29.4502 156.16 29.0469 155.923 28.7069 155.45C28.3669 154.977 28.1969 154.253 28.1969 153.28C28.1969 152.34 28.3969 151.583 28.7969 151.01C29.2035 150.437 29.8102 149.94 30.6169 149.52C30.8702 149.387 31.0835 149.267 31.2569 149.16C31.4302 149.053 31.5369 148.953 31.5769 148.86V147.66C31.5769 147.387 31.5435 147.153 31.4769 146.96C31.4169 146.76 31.2635 146.66 31.0169 146.66C30.7902 146.66 30.6369 146.767 30.5569 146.98C30.4769 147.187 30.4369 147.447 30.4369 147.76V148.28H28.4169V147.82C28.4169 147.22 28.5335 146.703 28.7669 146.27C29.0069 145.83 29.3302 145.493 29.7369 145.26C30.1502 145.02 30.6169 144.9 31.1369 144.9C31.6369 144.9 32.0702 145.017 32.4369 145.25C32.8035 145.477 33.0869 145.793 33.2869 146.2C33.4935 146.6 33.5969 147.06 33.5969 147.58V154.1C33.5969 154.587 33.6102 154.967 33.6369 155.24C33.6635 155.507 33.6969 155.76 33.7369 156H31.7569C31.6702 155.893 31.6169 155.737 31.5969 155.53C31.5835 155.323 31.5769 155.187 31.5769 155.12H31.4369C31.2702 155.427 31.0569 155.677 30.7969 155.87C30.5435 156.063 30.2502 156.16 29.9169 156.16ZM30.7369 154.18C30.9702 154.18 31.1669 154.1 31.3269 153.94C31.4935 153.78 31.5769 153.607 31.5769 153.42V150.82C31.0902 151.027 30.7335 151.34 30.5069 151.76C30.2869 152.173 30.1769 152.64 30.1769 153.16C30.1769 153.387 30.2202 153.613 30.3069 153.84C30.3935 154.067 30.5369 154.18 30.7369 154.18ZM38.8736 156.16C38.2403 156.16 37.7569 156.02 37.4236 155.74C37.0903 155.46 36.8603 155.06 36.7336 154.54C36.6136 154.02 36.5536 153.4 36.5536 152.68V146.88H35.5336V145.06H36.5536V142.36H38.5736V145.06H39.9636V146.88H38.5736V152.97C38.5736 153.397 38.6369 153.713 38.7636 153.92C38.8903 154.12 39.0969 154.22 39.3836 154.22C39.5103 154.22 39.6203 154.21 39.7136 154.19C39.8136 154.17 39.8936 154.147 39.9536 154.12V155.97C39.8203 156.023 39.6736 156.067 39.5136 156.1C39.3603 156.14 39.1469 156.16 38.8736 156.16ZM43.2825 156.16C42.9492 156.16 42.6692 156.053 42.4425 155.84C42.2158 155.627 42.0458 155.357 41.9325 155.03C41.8192 154.697 41.7625 154.36 41.7625 154.02V145.06H43.7825V153.62C43.7825 153.827 43.8192 153.977 43.8925 154.07C43.9725 154.157 44.0958 154.2 44.2625 154.2C44.4092 154.2 44.5325 154.15 44.6325 154.05C44.7392 153.943 44.8358 153.82 44.9225 153.68V145.06H46.9425V156H44.9225V155.08C44.6825 155.307 44.4125 155.543 44.1125 155.79C43.8125 156.037 43.5358 156.16 43.2825 156.16ZM49.1344 156V145.06H51.1544V146.28C51.1944 146.013 51.3177 145.777 51.5244 145.57C51.731 145.363 51.981 145.2 52.2744 145.08C52.5744 144.96 52.8744 144.9 53.1744 144.9V147.14C53.0877 147.107 52.9944 147.087 52.8944 147.08C52.801 147.067 52.7077 147.06 52.6144 147.06C52.1744 147.06 51.821 147.18 51.5544 147.42C51.2877 147.66 51.1544 147.987 51.1544 148.4V156H49.1344ZM57.5023 156.16C56.6957 156.16 56.059 155.883 55.5923 155.33C55.1323 154.77 54.9023 154.087 54.9023 153.28V147.78C54.9023 146.927 55.1323 146.233 55.5923 145.7C56.0523 145.167 56.6957 144.9 57.5223 144.9C58.0623 144.9 58.5257 145.023 58.9123 145.27C59.3057 145.517 59.6057 145.853 59.8123 146.28C60.019 146.7 60.1223 147.18 60.1223 147.72V150.9H56.7823V153.28C56.7823 153.553 56.8423 153.807 56.9623 154.04C57.089 154.267 57.2757 154.38 57.5223 154.38C57.7823 154.38 57.9657 154.273 58.0723 154.06C58.1857 153.847 58.2423 153.587 58.2423 153.28V152.08H60.1223V153.34C60.1223 154.187 59.8923 154.87 59.4323 155.39C58.979 155.903 58.3357 156.16 57.5023 156.16ZM56.7823 149.32H58.2423V147.78C58.2423 147.48 58.189 147.22 58.0823 147C57.9823 146.773 57.7957 146.66 57.5223 146.66C57.269 146.66 57.0823 146.777 56.9623 147.01C56.8423 147.237 56.7823 147.493 56.7823 147.78V149.32ZM69.2439 156.16C68.6506 156.16 68.1672 156.02 67.7939 155.74C67.4206 155.46 67.1439 155.08 66.9639 154.6C66.7906 154.12 66.7039 153.58 66.7039 152.98V144.32C66.7039 143.727 66.8206 143.19 67.0539 142.71C67.2872 142.23 67.6206 141.85 68.0539 141.57C68.4872 141.283 68.9972 141.14 69.5839 141.14C70.0306 141.14 70.4306 141.223 70.7839 141.39C71.1439 141.55 71.4472 141.777 71.6939 142.07C71.9472 142.363 72.1372 142.703 72.2639 143.09C72.3972 143.47 72.4639 143.88 72.4639 144.32V146.58H70.3039V144.32C70.3039 144.027 70.2506 143.773 70.1439 143.56C70.0372 143.347 69.8506 143.24 69.5839 143.24C69.3239 143.24 69.1372 143.353 69.0239 143.58C68.9172 143.8 68.8639 144.047 68.8639 144.32V153.16C68.8639 153.447 68.9206 153.7 69.0339 153.92C69.1472 154.133 69.3306 154.24 69.5839 154.24C69.8506 154.24 70.0372 154.133 70.1439 153.92C70.2506 153.7 70.3039 153.447 70.3039 153.16V150.7H69.4439V148.68H72.4639V156H71.1839L70.9239 155.2C70.7372 155.5 70.4972 155.737 70.2039 155.91C69.9172 156.077 69.5972 156.16 69.2439 156.16ZM76.4895 156.16C76.1562 156.16 75.8762 156.053 75.6495 155.84C75.4229 155.627 75.2529 155.357 75.1395 155.03C75.0262 154.697 74.9695 154.36 74.9695 154.02V145.06H76.9895V153.62C76.9895 153.827 77.0262 153.977 77.0995 154.07C77.1795 154.157 77.3029 154.2 77.4695 154.2C77.6162 154.2 77.7395 154.15 77.8395 154.05C77.9462 153.943 78.0429 153.82 78.1295 153.68V145.06H80.1495V156H78.1295V155.08C77.8895 155.307 77.6195 155.543 77.3195 155.79C77.0195 156.037 76.7429 156.16 76.4895 156.16ZM82.4414 156V145.06H84.4614V156H82.4414ZM82.4414 143.32V141.3H84.4614V143.32H82.4414ZM89.6259 156.16C88.9926 156.16 88.5093 156.02 88.1759 155.74C87.8426 155.46 87.6126 155.06 87.4859 154.54C87.3659 154.02 87.3059 153.4 87.3059 152.68V146.88H86.2859V145.06H87.3059V142.36H89.3259V145.06H90.7159V146.88H89.3259V152.97C89.3259 153.397 89.3893 153.713 89.5159 153.92C89.6426 154.12 89.8493 154.22 90.1359 154.22C90.2626 154.22 90.3726 154.21 90.4659 154.19C90.5659 154.17 90.6459 154.147 90.7059 154.12V155.97C90.5726 156.023 90.4259 156.067 90.2659 156.1C90.1126 156.14 89.8993 156.16 89.6259 156.16ZM94.0848 156.16C93.6182 156.16 93.2148 155.923 92.8748 155.45C92.5348 154.977 92.3648 154.253 92.3648 153.28C92.3648 152.34 92.5648 151.583 92.9648 151.01C93.3715 150.437 93.9782 149.94 94.7848 149.52C95.0382 149.387 95.2515 149.267 95.4248 149.16C95.5982 149.053 95.7048 148.953 95.7448 148.86V147.66C95.7448 147.387 95.7115 147.153 95.6448 146.96C95.5848 146.76 95.4315 146.66 95.1848 146.66C94.9582 146.66 94.8048 146.767 94.7248 146.98C94.6448 147.187 94.6048 147.447 94.6048 147.76V148.28H92.5848V147.82C92.5848 147.22 92.7015 146.703 92.9348 146.27C93.1748 145.83 93.4982 145.493 93.9048 145.26C94.3182 145.02 94.7848 144.9 95.3048 144.9C95.8048 144.9 96.2382 145.017 96.6048 145.25C96.9715 145.477 97.2548 145.793 97.4548 146.2C97.6615 146.6 97.7648 147.06 97.7648 147.58V154.1C97.7648 154.587 97.7782 154.967 97.8048 155.24C97.8315 155.507 97.8648 155.76 97.9048 156H95.9248C95.8382 155.893 95.7848 155.737 95.7648 155.53C95.7515 155.323 95.7448 155.187 95.7448 155.12H95.6048C95.4382 155.427 95.2248 155.677 94.9648 155.87C94.7115 156.063 94.4182 156.16 94.0848 156.16ZM94.9048 154.18C95.1382 154.18 95.3348 154.1 95.4948 153.94C95.6615 153.78 95.7448 153.607 95.7448 153.42V150.82C95.2582 151.027 94.9015 151.34 94.6748 151.76C94.4548 152.173 94.3448 152.64 94.3448 153.16C94.3448 153.387 94.3882 153.613 94.4748 153.84C94.5615 154.067 94.7048 154.18 94.9048 154.18ZM100.102 156V145.06H102.122V146.28C102.162 146.013 102.285 145.777 102.492 145.57C102.698 145.363 102.948 145.2 103.242 145.08C103.542 144.96 103.842 144.9 104.142 144.9V147.14C104.055 147.107 103.962 147.087 103.862 147.08C103.768 147.067 103.675 147.06 103.582 147.06C103.142 147.06 102.788 147.18 102.522 147.42C102.255 147.66 102.122 147.987 102.122 148.4V156H100.102ZM108.57 156.16C108.097 156.16 107.683 156.08 107.33 155.92C106.977 155.76 106.683 155.533 106.45 155.24C106.217 154.94 106.04 154.587 105.92 154.18C105.807 153.773 105.75 153.32 105.75 152.82H107.63C107.63 153.267 107.7 153.657 107.84 153.99C107.987 154.317 108.23 154.48 108.57 154.48C108.863 154.48 109.053 154.357 109.14 154.11C109.227 153.863 109.27 153.58 109.27 153.26C109.27 152.887 109.123 152.507 108.83 152.12C108.543 151.727 108.243 151.377 107.93 151.07C107.39 150.537 106.94 150.01 106.58 149.49C106.227 148.97 106.05 148.36 106.05 147.66C106.05 146.833 106.267 146.167 106.7 145.66C107.133 145.153 107.75 144.9 108.55 144.9C109.03 144.9 109.433 144.963 109.76 145.09C110.093 145.217 110.36 145.407 110.56 145.66C110.76 145.913 110.903 146.223 110.99 146.59C111.083 146.957 111.13 147.38 111.13 147.86H109.25C109.25 147.513 109.213 147.213 109.14 146.96C109.067 146.707 108.883 146.58 108.59 146.58C108.35 146.58 108.18 146.683 108.08 146.89C107.98 147.09 107.93 147.347 107.93 147.66C107.93 148.027 108.017 148.353 108.19 148.64C108.37 148.92 108.667 149.263 109.08 149.67C109.6 150.177 110.073 150.717 110.5 151.29C110.933 151.863 111.15 152.487 111.15 153.16C111.15 153.6 111.09 154.003 110.97 154.37C110.857 154.737 110.687 155.053 110.46 155.32C110.24 155.587 109.97 155.793 109.65 155.94C109.337 156.087 108.977 156.16 108.57 156.16Z" fill="white"/>
<path d="M65.8019 37.4648L78.1872 58.3379L80.323 78.0406L81.2767 83.5758L76.8112 84.8977L72.382 83.4587L74.8312 79.349C76.1437 76.9961 76.1855 74.141 74.9423 71.7508L73.9364 69.8168C73.0561 68.1244 72.6086 66.2404 72.6337 64.3329C72.665 61.9566 71.9681 59.6265 70.5963 57.686C70.4228 57.4405 70.2434 57.1878 70.0603 56.931C67.4257 53.2367 65.6553 48.603 65.715 44.0659L65.8019 37.4648Z" fill="white"/>
<path d="M65.8019 37.4648C70.6386 45.6163 78.1872 58.3379 78.1872 58.3379M65.8019 37.4648L65.715 44.0659C65.6553 48.603 67.4257 53.2367 70.0603 56.931C70.2434 57.1878 70.4228 57.4405 70.5963 57.686C71.9681 59.6265 72.665 61.9566 72.6337 64.3329V64.3329C72.6086 66.2404 73.0561 68.1244 73.9364 69.8168L74.9423 71.7508C76.1855 74.141 76.1437 76.9961 74.8312 79.349V79.349L72.382 83.4587L76.8112 84.8977L81.2767 83.5758L80.323 78.0406L78.1872 58.3379M65.8019 37.4648L78.1872 58.3379" stroke="white"/>
<path d="M35.8594 84.7031V87.4123C35.8594 88.452 35.4148 89.4421 34.6377 90.1328C33.8606 90.8235 33.416 91.8136 33.416 92.8533V97.9292C33.416 98.5167 33.2927 99.0977 33.0541 99.6346L31.6098 102.884C31.4115 103.331 31.6299 103.852 32.0872 104.023C32.688 104.248 32.8309 105.033 32.348 105.456L31.8126 105.924C31.4621 106.231 31.307 106.705 31.408 107.159L32.3301 111.309L41.2891 112.666C41.2891 111.883 41.8554 111.214 42.628 111.085L46.504 110.439C48.2995 110.14 49.7717 108.852 50.307 107.113C50.4479 106.655 50.5195 106.178 50.5195 105.699V104.757C50.5195 102.16 51.4875 99.656 53.2344 97.7344C52.649 89.3925 45.0772 83.3204 36.8074 84.5609L35.8594 84.7031Z" fill="white"/>
<path d="M85.3349 112.138C85.7166 110.705 85.7145 109.198 85.329 107.766L84.808 105.832C84.5814 104.99 84.6854 104.094 85.0987 103.327L74.3111 109.383C74.7194 109.744 74.9531 110.263 74.9531 110.809V114.764C74.9531 116.039 75.4051 117.272 76.2286 118.246C77.3076 119.521 77.7345 121.224 77.3845 122.857L76.8483 125.36C76.5072 126.952 76.8827 128.613 77.8753 129.903L78.5289 130.753C78.8508 131.172 79.0254 131.685 79.0254 132.213C79.0254 132.57 79.1055 132.923 79.2597 133.246L80.857 136.586C81.5252 137.983 83.0987 138.7 84.5916 138.288C86.9541 137.637 87.7351 134.678 86.0021 132.945L85.0804 132.024C84.6686 131.612 84.3528 131.114 84.1555 130.566L83.4363 128.569C82.5087 125.992 82.3895 123.194 83.0945 120.547L85.3349 112.138Z" fill="white"/>
<path d="M41.2891 112.666L32.3301 111.309C32.9996 114.656 31.7893 118.103 29.1734 120.297L25.6298 123.269C25.2306 123.603 25 124.098 25 124.619C25 126.018 26.5515 126.859 27.7237 126.096L35.3906 121.103C36.2353 120.553 36.9454 119.82 37.4686 118.959L41.2891 112.666Z" fill="white"/>
<path d="M64.7958 23.1186C63.8019 21.3116 62.3546 19.7946 60.5964 18.717L58.3265 17.3257C56.1725 16.0055 53.4899 15.8898 51.2302 17.0197C50.0542 17.6077 49.0584 18.5016 48.3474 19.6076L47.5737 20.8111C47.1872 21.4123 46.8995 22.0716 46.7215 22.7638L45.9209 25.8772C45.2279 28.5722 42.1661 29.8751 39.7437 28.5059L38.6474 22.3095C38.4181 21.0132 38.3027 19.6993 38.3027 18.3829V12.2217C38.3027 11.1633 38.6582 10.1355 39.3121 9.3032L40.5138 7.77378C40.982 7.17792 41.04 6.35698 40.6604 5.70117L38.6839 2.28727C38.4331 1.85416 38.0862 1.48453 37.6698 1.20693L37.2147 0.903554C36.394 0.356406 35.3248 0.356406 34.504 0.903555C33.8243 1.35671 33.416 2.11961 33.416 2.93655V12.4972C33.416 15.5296 32.7369 18.5234 31.4286 21.259L30.4297 23.3477L34.7099 33.7807C34.7519 33.8829 34.7734 33.9924 34.7734 34.103L37.0748 39.8012L37.9449 41.6083C38.1822 42.1012 38.3469 42.6259 38.4337 43.166L39.4851 49.7026C39.6561 50.7659 40.0166 51.7899 40.5493 52.7259C41.0391 53.5863 41.3836 54.5217 41.5689 55.4943L42.1055 58.3115C42.2825 59.2408 42.6839 60.1127 43.2749 60.8514C44.0983 61.8807 44.5469 63.1595 44.5469 64.4775V67.1779C44.5469 69.7578 43.8078 72.2837 42.4171 74.4567L35.8594 84.7031L36.8074 84.5609C45.0772 83.3204 52.649 89.3925 53.2344 97.7344L58.3926 95.291L74.3111 109.383L85.0987 103.327L85.9175 101.807L75.683 82.7741C72.5461 76.9405 71.1288 70.3364 71.596 63.7294L72.5072 50.8432C72.6826 48.3622 71.86 45.914 70.2223 44.0423L68.6006 42.1889C67.6458 41.0977 67.2732 39.6141 67.5993 38.2012C67.7921 37.3656 67.743 36.4924 67.4575 35.6837L66.8694 34.0173C66.4698 32.8851 66.2656 31.6932 66.2656 30.4926V28.841C66.2656 26.8402 65.76 24.8717 64.7958 23.1186Z" fill="white"/>
<path d="M58.3926 95.291L68.4621 108.206C69.853 109.99 72.3386 110.49 74.3111 109.383L58.3926 95.291Z" fill="white"/>
<path d="M38.3027 27.6914L39.7437 28.5059M39.7437 28.5059V28.5059C42.1661 29.8751 45.2279 28.5722 45.9209 25.8772L46.7215 22.7638C46.8995 22.0716 47.1872 21.4123 47.5737 20.8111L48.3474 19.6076C49.0584 18.5016 50.0542 17.6077 51.2302 17.0197V17.0197C53.4899 15.8898 56.1725 16.0055 58.3265 17.3257L60.5964 18.717C62.3546 19.7946 63.8019 21.3116 64.7958 23.1186V23.1186C65.76 24.8717 66.2656 26.8402 66.2656 28.841V30.4926C66.2656 31.6932 66.4698 32.8851 66.8694 34.0173L67.4575 35.6837C67.743 36.4924 67.7921 37.3656 67.5993 38.2012V38.2012C67.2732 39.6141 67.6458 41.0977 68.6006 42.1889L70.2223 44.0422C71.86 45.914 72.6826 48.3622 72.5072 50.8432L71.596 63.7294C71.1289 70.3364 72.5461 76.9405 75.683 82.7741L85.9175 101.807M39.7437 28.5059L38.6474 22.3095C38.4181 21.0132 38.3027 19.6993 38.3027 18.3829V12.2217C38.3027 11.1633 38.6582 10.1355 39.3121 9.3032L40.5138 7.77378C40.982 7.17792 41.04 6.35698 40.6604 5.70117V5.70117L38.6839 2.28727C38.4331 1.85416 38.0862 1.48453 37.6698 1.20693L37.2147 0.903555C36.394 0.356406 35.3248 0.356406 34.504 0.903555V0.903555C33.8243 1.35671 33.416 2.11961 33.416 2.93655V12.4972C33.416 15.5296 32.7369 18.5234 31.4286 21.259L30.4297 23.3477M30.4297 23.3477L34.7099 33.7807C34.7519 33.8829 34.7734 33.9924 34.7734 34.103V34.103M30.4297 23.3477L34.7734 34.103M35.8594 84.7031L42.4171 74.4567C43.8078 72.2837 44.5469 69.7578 44.5469 67.1779V64.4776C44.5469 63.1595 44.0983 61.8807 43.2749 60.8514V60.8514C42.6839 60.1127 42.2825 59.2408 42.1055 58.3115L41.5689 55.4943C41.3836 54.5217 41.0391 53.5863 40.5493 52.7259V52.7259C40.0166 51.7899 39.6561 50.7659 39.4851 49.7026L38.4337 43.166M35.8594 84.7031V87.4123C35.8594 88.452 35.4148 89.4421 34.6377 90.1328V90.1328C33.8606 90.8235 33.416 91.8136 33.416 92.8533V97.9292C33.416 98.5167 33.2927 99.0977 33.0541 99.6346L31.6098 102.884C31.4115 103.331 31.6299 103.852 32.0872 104.023V104.023C32.688 104.248 32.8309 105.033 32.348 105.456L31.8126 105.924C31.4621 106.231 31.307 106.705 31.408 107.159L32.3301 111.309M35.8594 84.7031L36.8074 84.5609C45.0772 83.3204 52.649 89.3925 53.2344 97.7344V97.7344M32.3301 111.309L41.2891 112.666M32.3301 111.309V111.309C32.9996 114.656 31.7893 118.103 29.1734 120.297L25.6298 123.269C25.2306 123.603 25 124.098 25 124.619V124.619C25 126.018 26.5515 126.859 27.7237 126.096L35.3906 121.103C36.2353 120.553 36.9454 119.82 37.4686 118.959L41.2891 112.666M41.2891 112.666V112.666C41.2891 111.883 41.8554 111.214 42.628 111.085L46.504 110.439C48.2995 110.14 49.7717 108.852 50.307 107.113V107.113C50.4479 106.655 50.5195 106.178 50.5195 105.699V104.757C50.5195 102.16 51.4875 99.656 53.2344 97.7344V97.7344M53.2344 97.7344L58.3926 95.291M58.3926 95.291L68.4621 108.206C69.853 109.99 72.3386 110.49 74.3111 109.383V109.383M58.3926 95.291L74.3111 109.383M85.9175 101.807V101.807C86.1607 102.259 85.9968 102.822 85.5491 103.074L85.0987 103.327M85.9175 101.807L85.0987 103.327M38.4337 43.166V43.166C38.3469 42.6259 38.1822 42.1012 37.9449 41.6083L37.0748 39.8012M38.4337 43.166L37.0748 39.8012M34.7734 34.103L37.0748 39.8012M34.7734 34.103V34.103C34.7734 34.7075 34.9096 35.3043 35.1719 35.8491L37.0748 39.8012M74.3111 109.383L85.0987 103.327M74.3111 109.383V109.383C74.7194 109.744 74.9531 110.263 74.9531 110.809V114.764C74.9531 116.039 75.4051 117.272 76.2286 118.246V118.246C77.3076 119.521 77.7345 121.224 77.3845 122.857L76.8483 125.36C76.5072 126.952 76.8827 128.613 77.8753 129.903L78.5289 130.753C78.8508 131.172 79.0254 131.685 79.0254 132.213V132.213C79.0254 132.57 79.1055 132.923 79.2597 133.246L80.857 136.586C81.5252 137.983 83.0987 138.7 84.5916 138.288V138.288C86.9541 137.637 87.7351 134.678 86.0021 132.945L85.0804 132.024C84.6686 131.612 84.3528 131.114 84.1555 130.566L83.4363 128.569C82.5087 125.992 82.3895 123.194 83.0945 120.547L85.3349 112.138C85.7166 110.705 85.7145 109.198 85.329 107.766L84.808 105.832C84.5814 104.99 84.6854 104.094 85.0987 103.327V103.327" stroke="white"/>
<path d="M70.0664 59.1836L65.7227 56.4688L63.375 55.1272C62.4625 54.6058 61.355 54.5545 60.3983 54.9894C59.4757 55.4088 58.7996 56.2319 58.5675 57.2183L58.1636 58.935C57.9563 59.816 57.5768 60.6473 57.0469 61.381L56.1528 62.6189C54.9451 64.2912 53.3945 65.6867 51.6045 66.7122L29.2741 79.5056C28.6455 79.8658 28.2578 80.5348 28.2578 81.2592C28.2578 82.1705 28.8678 82.9691 29.747 83.2089L30.3871 83.3834C30.9455 83.5358 31.5369 83.5168 32.0845 83.3291L50.248 77.1016L52.041 76.3844C52.6107 76.1565 53.2591 76.2526 53.7382 76.6359C54.1093 76.9328 54.3396 77.3711 54.3734 77.8451L55.8872 99.038C55.9265 99.5879 56.2089 100.092 56.6575 100.412C57.3561 100.911 58.306 100.864 58.9521 100.299L59.4539 99.8599C59.8251 99.5351 60.1 99.1145 60.2486 98.6441L67.6418 75.2323C67.9898 74.1302 68.4785 73.0776 69.0956 72.1004C70.609 69.7042 72.8406 67.8473 75.472 66.7948L84.3369 63.2488C84.7546 63.0817 85.0734 62.7333 85.2027 62.3023C85.4982 61.3171 84.721 60.3392 83.6945 60.4047L75.4121 60.9334C73.8789 61.0312 72.3543 60.6395 71.0581 59.8147L70.0664 59.1836Z" fill="white"/>
<path d="M93.1426 29.0488L89.3418 27.9629L65.7227 56.4688L70.0664 59.1836L93.1426 29.0488Z" fill="white"/>
<path d="M95.5859 20.9043L95.043 13.5742L89.3418 24.4336V27.9629L93.1426 29.0488L95.5859 27.9629L101.83 20.3613L95.5859 20.9043Z" fill="white"/>
<path d="M93.1426 29.0488L95.5859 27.9629L101.83 20.3613L95.5859 20.9043L95.043 13.5742L89.3418 24.4336V27.9629M93.1426 29.0488L89.3418 27.9629M93.1426 29.0488L70.0664 59.1836M89.3418 27.9629L65.7227 56.4688M65.7227 56.4688L70.0664 59.1836M65.7227 56.4688L63.375 55.1272C62.4625 54.6058 61.355 54.5545 60.3982 54.9894V54.9894C59.4757 55.4088 58.7996 56.2319 58.5675 57.2183L58.1636 58.935C57.9563 59.816 57.5768 60.6473 57.0469 61.381L56.1528 62.6189C54.9451 64.2912 53.3945 65.6867 51.6045 66.7122L29.2741 79.5056C28.6455 79.8658 28.2578 80.5348 28.2578 81.2592V81.2592C28.2578 82.1705 28.8678 82.9691 29.747 83.2089L30.3871 83.3834C30.9455 83.5358 31.5369 83.5168 32.0845 83.3291L50.248 77.1016L52.041 76.3844C52.6107 76.1565 53.2591 76.2526 53.7382 76.6359V76.6359C54.1093 76.9328 54.3396 77.3711 54.3734 77.8451L55.8872 99.038C55.9265 99.5879 56.2089 100.092 56.6575 100.412V100.412C57.3561 100.911 58.306 100.864 58.9521 100.299L59.4539 99.8599C59.8251 99.5351 60.1 99.1145 60.2486 98.6441L67.6418 75.2323C67.9898 74.1302 68.4785 73.0776 69.0956 72.1004V72.1004C70.609 69.7042 72.8406 67.8473 75.472 66.7948L84.3369 63.2488C84.7546 63.0817 85.0734 62.7333 85.2027 62.3023V62.3023C85.4982 61.3171 84.721 60.3392 83.6945 60.4047L75.4121 60.9334C73.8789 61.0312 72.3543 60.6395 71.0581 59.8147L70.0664 59.1836" stroke="white"/>
<path d="M31.2441 83.0742L46.7188 77.916L52.6914 76.0156L54.8633 77.6445" stroke="black"/>
<path d="M56.4922 96.6484L55.1849 83.7142L54.6088 77.473L52.2626 76.1071" stroke="black"/>
</svg>
